<svg xmlns="http://www.w3.org/2000/svg" version="1.1" xmlns:xlink="http://www.w3.org/1999/xlink" xmlns:svgjs="http://svgjs.dev/svgjs" viewBox="0 0 1422 800"><defs><filter id="uuunion-blur" x="-100%" y="-100%" width="400%" height="400%" color-interpolation-filters="sRGB">
        <feGaussianBlur in="SourceGraphic" stdDeviation="0 0" result="blur"></feGaussianBlur>
        <feDropShadow stdDeviation="80" in="blur" dx="65" dy="65" flood-color="hsl(167, 75%, 9%)" flood-opacity="0.28" x="0%" y="0%" width="100%" height="100%"></feDropShadow>
      </filter><filter id="uuunion-blur2" x="-100%" y="-100%" width="400%" height="400%" color-interpolation-filters="sRGB">
        <feGaussianBlur in="SourceGraphic" stdDeviation="0 0" result="blur"></feGaussianBlur>
        <feDropShadow stdDeviation="80" in="blur" dx="-65" dy="-65" flood-color="hsl(167, 75%, 9%)" flood-opacity="0.28" x="0%" y="0%" width="100%" height="100%"></feDropShadow>
      </filter><linearGradient gradientTransform="rotate(0, 0.5, 0.5)" x1="50%" y1="0%" x2="50%" y2="100%" id="uuunion-grad"><stop stop-color="hsl(167, 74%, 45%)" offset="10%"></stop><stop stop-color="hsl(167, 75%, 9%)" offset="90%"></stop></linearGradient><linearGradient gradientTransform="rotate(135, 0.5, 0.5)" x1="50%" y1="0%" x2="50%" y2="100%" id="uuunion-grad2"><stop stop-color="hsl(167, 74%, 45%)" offset="25%"></stop><stop stop-color="hsl(167, 75%, 9%)" offset="100%"></stop></linearGradient><linearGradient gradientTransform="rotate(333, 0.5, 0.5)" x1="50%" y1="0%" x2="50%" y2="100%" id="uuunion-grad3"><stop stop-color="hsl(167, 74%, 45%)" offset="0%"></stop><stop stop-color="hsl(167, 75%, 9%)" offset="75%"></stop></linearGradient></defs><path d="M-130.7 -87.52Q-117.73 -88.48 -104.77 -88.46 -91.8 -87.45 -78.84 -85.59 -65.87 -83.07 -52.91 -80.2 -39.94 -77.31 -26.98 -74.73 -14.01 -72.75 -1.05 -71.62 11.91 -71.45 24.87 -72.27 37.84 -73.99 50.8 -76.4 63.77 -79.23 76.73 -82.14 89.7 -84.81 102.66 -86.92 115.63 -88.23 128.59 -88.58 141.56 -87.95 154.52 -86.39 167.49 -84.09 180.46 -81.32 193.42 -78.39 206.39 -75.65 219.35 -73.42 232.32 -71.94 245.28 -71.4 258.25 -71.85 271.21 -73.24 284.18 -75.42 297.14 -78.12 310.11 -81.04 323.07 -83.84 336.04 -86.2 349 -87.84 361.97 -88.57 374.93 -88.3 387.9 -87.08 400.86 -85.04 413.83 -82.41 426.79 -79.51 439.76 -76.66 452.72 -74.19 465.69 -72.4 478.65 -71.49 491.62 -71.56 504.58 -72.61 517.55 -74.51 530.51 -77.05 543.48 -79.92 556.44 -82.81 569.41 -85.37 582.37 -87.31 595.34 -88.4 608.3 -88.52 621.27 -87.65 634.23 -85.9 647.2 -83.46 660.16 -80.63 673.13 -77.71 686.09 -75.07 699.06 -72.99 712.02 -71.72 724.99 -71.41 737.95 -72.1 750.92 -73.69 763.88 -76.02 776.85 -78.81 789.82 -81.73 802.78 -84.45 815.75 -86.66 828.71 -88.1 841.68 -88.59 854.64 -88.1 867.61 -86.66 880.57 -84.46 893.54 -81.74 906.5 -78.81 919.47 -76.02 932.43 -73.7 945.4 -72.1 958.36 -71.41 971.33 -71.72 984.29 -72.99 997.26 -75.06 1010.22 -77.71 1023.19 -80.62 1036.15 -83.46 1049.12 -85.9 1062.08 -87.65 1075.05 -88.52 1088.01 -88.4 1100.98 -87.31 1113.94 -85.38 1126.91 -82.81 1139.87 -79.93 1152.84 -77.05 1165.8 -74.51 1178.77 -72.61 1191.73 -71.56 1204.7 -71.49 1217.67 -72.4 1230.63 -74.19 1243.6 -76.65 1256.56 -79.5 1269.53 -82.41 1282.49 -85.04 1295.46 -87.08 1308.42 -88.3 1321.39 -88.57 1334.35 -87.84 1347.32 -86.2 1360.28 -83.85 1373.25 -81.05 1386.21 -78.12 1399.18 -75.42 1412.14 -73.24 1425.11 -71.85 1438.07 -71.4 1451.04 -71.94 1464 -73.41 1476.97 -75.65 1489.93 -78.39 1502.9 -81.32 1515.86 -84.09 1528.83 -86.39 1532.42 -71.58 1537.8 -56.78 1544.67 -41.97 1552.64 -27.17 1561.26 -12.36 1570.05 2.43 1578.51 17.24 1586.16 32.04 1592.57 46.85 1597.38 61.65 1600.32 76.46 1601.22 91.26 1600.03 106.07 1596.82 120.87 1591.77 135.68 1585.16 150.48 1577.37 165.29 1568.84 180.09 1560.04 194.9 1551.48 209.7 1543.64 224.51 1536.95 239.31 1531.81 254.12 1528.49 268.92 1527.18 283.73 1527.97 298.53 1530.79 313.34 1535.51 328.14 1541.84 342.95 1549.43 357.75 1557.85 372.56 1566.64 387.36 1575.28 402.17 1583.3 416.97 1590.25 431.78 1595.72 446.58 1599.41 461.39 1601.12 476.19 1600.74 491 1598.3 505.8 1593.94 520.61 1587.9 535.41 1580.52 550.22 1572.22 565.02 1563.47 579.83 1554.76 594.63 1546.58 609.44 1539.39 624.24 1533.61 639.04 1529.55 653.85 1527.44 668.65 1527.41 683.46 1529.46 698.26 1533.46 713.07 1539.2 727.87 1546.35 742.68 1554.5 757.48 1563.21 772.29 1571.97 787.09 1580.28 801.9 1587.7 816.7 1593.78 831.51 1598.2 846.31 1600.7 861.12 1586.99 867.91 1573.28 876.1 1559.57 884.73 1545.86 892.83 1532.15 899.43 1518.44 903.79 1504.73 905.39 1491.02 904.06 1477.32 899.94 1463.61 893.51 1449.9 885.52 1436.19 876.89 1422.48 868.62 1408.77 861.66 1395.06 856.83 1381.35 854.68 1367.64 855.45 1353.93 859.07 1340.23 865.11 1326.52 872.87 1312.81 881.45 1299.1 889.87 1285.39 897.14 1271.68 902.43 1257.97 905.12 1244.26 904.91 1230.55 901.81 1216.84 896.19 1203.14 888.69 1189.43 880.19 1175.72 871.67 1162.01 864.11 1148.3 858.38 1134.59 855.16 1120.88 854.81 1107.17 857.38 1093.46 862.56 1079.75 869.76 1066.04 878.14 1052.34 886.74 1038.63 894.56 1024.92 900.69 1011.21 904.43 997.5 905.34 983.79 903.32 970.08 898.6 956.37 891.72 942.66 883.49 928.95 874.86 915.25 866.82 901.54 860.3 887.83 856.06 874.12 854.6 860.41 856.07 846.7 860.31 832.99 866.83 819.28 874.87 805.57 883.5 791.86 891.73 778.16 898.6 764.45 903.32 750.74 905.34 737.03 904.43 723.32 900.69 709.61 894.55 695.9 886.73 682.19 878.13 668.48 869.75 654.77 862.55 641.07 857.37 627.36 854.81 613.65 855.16 599.94 858.39 586.23 864.11 572.52 871.68 558.81 880.2 545.1 888.71 531.39 896.2 517.68 901.82 503.98 904.91 490.27 905.12 476.56 902.43 462.85 897.13 449.14 889.86 435.43 881.44 421.72 872.86 408.01 865.1 394.3 859.06 380.6 855.45 366.89 854.68 353.18 856.84 339.47 861.67 325.76 868.63 312.05 876.9 298.34 885.53 284.63 893.52 270.92 899.94 257.21 904.06 243.51 905.39 229.8 903.78 216.09 899.42 202.38 892.82 188.67 884.72 174.96 876.09 161.25 867.9 147.54 861.11 133.83 856.51 120.13 854.63 106.42 855.68 92.71 859.54 79 865.77 65.29 873.65 51.58 882.26 37.87 890.61 24.16 897.73 10.45 902.8 -3.24 905.23 -16.95 904.74 -30.66 901.39 -44.37 895.56 -58.08 887.93 -71.79 879.38 -85.5 870.91 -99.21 863.48 -112.92 857.97 -126.63 855 -140.33 854.93 -154.04 857.76 -153.23 842.99 -151.8 828.22 -149.82 813.45 -147.41 798.68 -144.71 783.91 -141.86 769.14 -139.04 754.37 -136.39 739.6 -134.07 724.83 -132.2 710.06 -130.9 695.29 -130.24 680.51 -130.25 665.74 -130.93 650.97 -132.25 636.2 -134.13 621.43 -136.46 606.66 -139.12 591.89 -141.95 577.12 -144.79 562.35 -147.49 547.58 -149.88 532.81 -151.85 518.04 -153.26 503.27 -154.06 488.5 -154.18 473.73 -153.62 458.96 -152.43 444.19 -150.65 429.42 -148.39 414.65 -145.79 399.88 -142.98 385.11 -140.13 370.34 -137.39 355.57 -134.92 340.8 -132.87 326.03 -131.33 311.26 -130.42 296.49 -130.16 281.72 -130.59 266.95 -131.66 252.18 -133.34 237.41 -135.51 222.64 -138.05 207.87 -140.84 193.1 -143.69 178.33 -146.47 163.56 -149 148.79 -151.14 134.02 -152.78 119.25 -153.83 104.48 -154.21 89.71 -153.92 74.94 -152.97 60.17 -151.4 45.4 -149.32 30.63 -146.83 15.86 -144.09 1.09 -141.23 -13.67 -138.43 -28.44 -135.84 -43.21 -133.61 -57.98 -131.86 -72.75 -130.7 -87.52" fill="url(#uuunion-grad)"></path><path d="M-130.71 -87.52Q-131.87 -72.75 -133.62 -57.98 -135.85 -43.21 -138.44 -28.44 -141.24 -13.67 -144.1 1.09 -146.84 15.86 -149.33 30.63 -151.41 45.4 -152.98 60.17 -153.93 74.94 -154.22 89.71 -153.84 104.48 -152.79 119.25 -151.15 134.02 -149.01 148.79 -146.48 163.56 -143.7 178.33 -140.85 193.1 -138.06 207.87 -135.52 222.64 -133.35 237.41 -131.67 252.18 -130.59 266.95 -130.17 281.72 -130.43 296.49 -131.34 311.26 -132.87 326.03 -134.93 340.8 -137.4 355.57 -137.11 376.99 -125.18 383.02 -116.28 383.27 -107.37 384.38 -98.47 386.31 -89.56 388.94 -80.66 392.14 -71.75 395.75 -62.85 399.58 -53.95 403.43 -45.04 407.1 -36.14 410.41 -27.23 413.17 -18.33 415.26 -1.5 416.87 1.46 416.97 12.95 412.87 24.41 407.49 35.84 401.03 47.23 393.75 58.59 386 69.92 378.15 81.21 370.57 92.47 363.63 103.69 357.63 114.88 352.79 126.04 349.23 137.16 347 148.25 345.99 159.31 346.05 170.34 346.9 181.33 348.22 192.31 349.66 203.25 350.84 214.17 351.42 225.06 351.11 235.94 349.69 246.79 347.04 257.62 343.11 268.44 337.99 279.25 331.84 290.04 324.91 300.82 317.52 311.6 310 322.37 302.72 333.13 295.99 343.9 290.12 354.67 285.3 365.44 281.68 376.22 279.27 387 278.02 397.8 277.76 408.61 278.27 419.44 279.23 430.29 280.33 441.15 281.22 452.04 281.58 462.95 281.14 473.89 279.68 484.85 277.09 495.85 273.32 506.87 268.44 517.93 262.6 529.02 256.02 540.15 248.98 551.31 241.8 562.51 234.81 573.75 228.32 585.02 222.58 596.34 217.81 607.69 214.13 619.08 211.57 630.51 210.09 641.98 209.53 653.49 209.69 665.03 210.3 676.61 211.06 688.23 211.65 699.89 211.78 711.57 211.19 723.29 209.68 735.05 207.13 746.83 203.51 758.64 198.86 770.47 193.31 782.33 187.06 794.21 180.38 806.1 173.54 818.02 166.85 829.95 160.6 841.89 155.02 853.83 150.31 865.78 146.59 877.74 143.9 889.69 142.19 901.64 141.35 913.59 141.18 925.52 141.44 937.44 141.85 949.34 142.14 961.23 142.02 973.09 141.26 984.92 139.69 996.72 137.17 1008.49 133.67 1020.23 129.23 1031.93 123.96 1043.58 118.05 1055.19 111.71 1066.75 105.22 1078.26 98.84 1089.72 92.83 1101.13 87.43 1112.47 82.8 1123.76 79.06 1134.98 76.25 1146.14 74.34 1157.23 73.22 1168.26 72.72 1179.22 72.63 1190.11 72.7 1200.93 72.67 1211.68 72.3 1222.35 71.37 1232.96 69.7 1243.49 67.2 1253.95 63.81 1264.34 59.57 1274.66 54.57 1284.9 48.98 1295.08 42.99 1305.19 36.84 1315.24 30.78 1325.22 25.03 1335.13 19.81 1344.99 15.27 1354.79 11.53 1364.53 8.62 1374.22 6.52 1383.86 5.13 1393.46 4.32 1403.01 3.88 1412.52 3.61 1422 3.27 1412.96 -14.32 1404.62 -31.92 1397.61 -49.52 1392.47 -67.12 1389.6 -84.72 1389.21 -102.33 1391.33 -119.93 1395.8 -137.53 1383.77 -139.86 1371.74 -142.21 1359.71 -144.34 1347.68 -146.05 1335.64 -147.15 1323.61 -147.54 1311.58 -147.19 1299.55 -146.13 1287.52 -144.46 1275.49 -142.35 1263.46 -140.01 1251.43 -137.67 1239.4 -135.55 1227.37 -133.88 1215.33 -132.8 1203.3 -132.45 1191.27 -132.83 1179.24 -133.93 1167.21 -135.62 1155.18 -137.75 1143.15 -140.1 1131.12 -142.44 1119.09 -144.53 1107.06 -146.18 1095.02 -147.22 1082.99 -147.54 1070.96 -147.12 1058.93 -145.99 1046.9 -144.27 1034.87 -142.13 1022.84 -139.78 1010.81 -137.44 998.78 -135.36 986.75 -133.74 974.71 -132.74 962.68 -132.45 950.65 -132.91 938.62 -134.07 926.59 -135.81 914.56 -137.97 902.53 -140.33 890.5 -142.65 878.47 -144.72 866.44 -146.31 854.4 -147.28 842.37 -147.53 830.34 -147.04 818.31 -145.85 806.28 -144.08 794.25 -141.91 782.22 -139.54 770.19 -137.23 758.16 -135.18 746.13 -133.61 734.09 -132.68 722.06 -132.46 710.03 -132.99 698 -134.22 685.97 -136.01 673.94 -138.2 661.91 -140.56 649.88 -142.87 637.85 -144.9 625.82 -146.44 613.78 -147.34 601.75 -147.52 589.72 -146.95 577.69 -145.7 565.66 -143.88 553.63 -141.68 541.6 -139.31 529.57 -137.01 517.54 -135 505.51 -133.49 493.47 -132.62 481.44 -132.48 469.41 -133.08 457.38 -134.37 445.35 -136.21 433.32 -138.42 421.29 -140.79 409.26 -143.09 397.23 -145.07 385.2 -146.56 373.16 -147.39 361.13 -147.5 349.1 -146.86 337.07 -145.54 325.04 -143.68 313.01 -141.45 300.98 -139.08 288.95 -136.8 276.92 -134.83 264.89 -133.38 252.85 -132.58 240.82 -132.51 228.79 -133.18 216.76 -134.53 204.73 -136.41 192.7 -138.65 180.67 -141.03 168.64 -143.3 156.61 -145.24 144.57 -146.67 132.54 -147.44 120.51 -147.47 108.48 -146.76 96.45 -145.38 84.42 -143.47 72.39 -141.22 60.36 -138.85 48.33 -136.59 36.3 -134.66 24.26 -133.27 12.23 -132.54 0.2 -132.54 -11.82 -133.28 -23.85 -134.69 -35.88 -136.62 -47.91 -138.88 -59.94 -141.26 -71.97 -143.51 -84 -145.41 -96.04 -146.77 -108.07 -147.47 -120.1 -147.43 -135.96 -138.73 -136.08 -116.39 -133.05 -101.97 -130.71 -87.52" fill="url(#uuunion-grad2)" filter="url(#uuunion-blur)"></path><path d="M1391.25 325.1Q1399.9 328.3 1408.55 331.07 1425.84 334.39 1443.14 335.46 1451.79 334.61 1460.44 333 1469.09 330.71 1477.74 327.87 1486.39 324.63 1495.04 321.14 1503.68 317.6 1512.33 314.18 1520.98 311.06 1529.63 308.4 1534.6 325.67 1541.84 342.95 1550.79 360.22 1560.77 377.49 1571.01 394.76 1580.73 412.04 1589.18 429.31 1595.72 446.58 1599.84 463.85 1601.22 481.13 1599.77 498.4 1595.59 515.67 1589.01 532.94 1580.52 550.22 1570.78 567.49 1560.53 584.76 1550.57 602.03 1541.65 619.3 1534.46 636.58 1529.55 653.85 1527.29 671.12 1527.87 688.39 1531.23 705.67 1537.11 722.94 1545.08 740.21 1554.5 757.48 1564.68 774.76 1574.81 792.03 1584.13 809.3 1591.92 826.57 1597.59 843.85 1600.7 861.12 1588.12 867.28 1575.55 874.68 1562.97 882.6 1550.4 890.27 1537.82 896.93 1525.25 901.94 1512.67 904.82 1500.1 905.27 1487.53 903.26 1474.95 898.98 1462.38 892.84 1449.8 885.46 1437.23 877.54 1424.65 869.87 1412.08 863.18 1399.5 858.12 1386.93 855.21 1374.35 854.71 1361.78 856.67 1349.2 860.91 1336.63 867.01 1324.05 874.38 1311.48 882.29 1298.91 889.98 1286.33 896.7 1273.76 901.78 1261.18 904.75 1248.61 905.3 1236.03 903.38 1223.46 899.18 1210.88 893.11 1198.31 885.77 1185.73 877.86 1173.16 870.15 1160.58 863.41 1148.01 858.29 1135.43 855.28 1122.86 854.68 1110.28 856.55 1097.71 860.7 1085.14 866.74 1072.56 874.07 1059.99 881.98 1047.41 889.69 1034.84 896.46 1022.26 901.62 1009.69 904.68 997.11 905.32 984.54 903.5 971.96 899.39 959.39 893.38 946.81 886.07 934.24 878.17 921.66 870.44 909.09 863.65 896.52 858.45 883.94 855.35 871.37 854.66 858.79 856.43 846.22 860.5 833.64 866.47 821.07 873.77 808.49 881.66 795.92 889.4 783.34 896.22 770.77 901.46 758.19 904.6 745.62 905.35 733.04 903.62 720.47 899.59 707.9 893.65 695.32 886.38 682.75 878.48 670.17 870.74 657.6 863.89 645.02 858.62 632.45 855.43 619.87 854.64 607.3 856.31 594.72 860.3 582.15 866.21 569.57 873.46 557 881.35 544.42 889.11 531.85 895.98 519.27 901.29 506.7 904.52 494.13 905.36 481.55 903.73 468.98 899.79 456.4 893.91 443.83 886.68 431.25 878.8 418.68 871.03 406.1 864.14 393.53 858.79 380.95 855.51 368.38 854.62 355.8 856.2 343.23 860.11 330.65 865.95 318.08 873.16 305.51 881.04 292.93 888.81 280.36 895.73 267.78 901.11 255.21 904.44 242.63 905.38 230.06 903.84 217.48 899.98 204.91 894.17 192.33 886.98 179.76 879.11 167.18 871.32 154.61 864.38 142.03 858.96 129.46 855.6 116.89 854.61 104.31 856.09 91.74 859.91 79.16 865.69 66.59 872.86 54.01 880.72 41.44 888.52 28.86 895.48 16.29 900.94 -2.41 899.78 -8.04 885.04 -7.36 874.86 -6.53 864.69 -5.55 854.51 -4.46 844.34 -2.41 829.08 -1.04 824 12.25 816.42 25.47 806.56 38.63 794.79 51.7 781.7 64.68 768 77.58 754.44 90.39 741.77 103.11 730.62 115.74 721.49 128.29 714.63 140.76 710.11 153.16 707.71 165.49 707.03 177.76 707.48 189.99 708.37 202.17 708.98 214.33 708.61 226.46 706.68 238.59 702.76 250.72 696.63 262.86 688.31 275.03 678.03 287.22 666.21 299.46 653.44 311.75 640.38 324.1 627.74 336.51 616.15 348.99 606.15 361.54 598.09 374.16 592.15 386.86 588.27 399.64 586.18 412.5 585.46 425.42 585.51 438.41 585.69 451.46 585.36 464.57 583.91 477.72 580.87 490.9 575.94 504.11 568.99 517.34 560.13 530.57 549.63 543.78 537.95 556.98 525.66 570.14 513.36 583.25 501.68 596.3 491.16 609.27 482.22 622.16 475.1 634.96 469.89 647.64 466.45 660.21 464.47 672.66 463.51 684.99 463.02 697.17 462.4 709.23 461.09 721.14 458.6 732.92 454.56 744.56 448.76 756.08 441.18 767.47 431.98 778.74 421.47 789.91 410.11 800.99 398.43 810.42 393.06 819.84 388.05 829.25 383.63 838.65 380.01 848.04 377.31 857.42 375.63 866.79 374.99 876.14 375.35 885.49 376.62 894.83 378.62 904.15 381.17 913.47 384.01 922.77 386.91 932.07 389.6 941.36 391.84 950.64 393.42 959.91 394.17 969.17 393.95 978.42 392.72 987.66 390.47 996.9 387.27 1006.13 383.24 1015.35 378.56 1024.57 373.43 1033.77 368.1 1042.98 362.82 1052.17 357.84 1061.36 353.39 1070.54 349.66 1079.72 346.81 1088.9 344.93 1098.07 344.06 1107.23 344.17 1116.39 345.18 1125.55 346.94 1134.7 349.27 1143.86 351.94 1153 354.71 1162.15 357.33 1171.3 359.57 1180.44 361.21 1189.58 362.07 1198.72 362.02 1207.87 361 1217.01 358.99 1226.15 356.05 1235.29 352.27 1244.44 347.81 1253.58 342.89 1262.73 337.72 1271.88 332.54 1281.03 327.61 1290.19 323.14 1299.35 319.33 1308.52 316.35 1317.69 314.28 1326.86 313.19 1336.04 313.06 1345.22 313.82 1354.41 315.33 1363.61 317.44 1372.82 319.92 1382.03 322.56 1391.25 325.1" fill="url(#uuunion-grad3)" filter="url(#uuunion-blur2)"></path></svg>
