<svg xmlns="http://www.w3.org/2000/svg" version="1.1" xmlns:xlink="http://www.w3.org/1999/xlink" xmlns:svgjs="http://svgjs.dev/svgjs" viewBox="0 0 800 800"><defs><radialGradient id="ccclaymoji-grad-dark" r="93%" cx="20%" cy="20%">
      <stop offset="70%" stop-color="hsl(50, 65%, 76%)" stop-opacity="0"></stop>
      <stop offset="97%" stop-color="#b7aa6b" stop-opacity="1"></stop>
    </radialGradient><radialGradient id="ccclaymoji-grad-light" r="65%" cx="28%" cy="20%">
    <stop offset="0%" stop-color="#ffffcb" stop-opacity="0.75"></stop>
    <stop offset="100%" stop-color="hsl(50, 65%, 76%)" stop-opacity="0"></stop>
  </radialGradient><filter id="inner-blur" x="-100%" y="-100%" width="400%" height="400%" filterUnits="objectBoundingBox" primitiveUnits="userSpaceOnUse" color-interpolation-filters="sRGB">
	<feGaussianBlur stdDeviation="2" x="0%" y="0%" width="100%" height="100%" in="SourceGraphic" edgeMode="none" result="blur"></feGaussianBlur></filter><filter id="eye-shadow" x="-100%" y="-100%" width="400%" height="400%" filterUnits="objectBoundingBox" primitiveUnits="userSpaceOnUse" color-interpolation-filters="sRGB">
	<feDropShadow stdDeviation="10" dx="10" dy="10" flood-color="#000000" flood-opacity="0.2" x="0%" y="0%" width="100%" height="100%" result="dropShadow"></feDropShadow>
</filter><linearGradient gradientTransform="rotate(-25)" id="eye-light" x1="50%" y1="0%" x2="50%" y2="100%">
      <stop offset="20%" stop-color="#555555" stop-opacity="1"></stop>
      <stop offset="100%" stop-color="black" stop-opacity="0"></stop>
    </linearGradient><linearGradient id="mouth-light" x1="50%" y1="0%" x2="50%" y2="100%">
    <stop offset="0%" stop-color="#ff9667" stop-opacity="1"></stop>
    <stop offset="100%" stop-color="hsl(3, 100%, 51%)" stop-opacity="0"></stop>
  </linearGradient><filter id="mouth-shadow" x="-100%" y="-100%" width="400%" height="400%" filterUnits="objectBoundingBox" primitiveUnits="userSpaceOnUse" color-interpolation-filters="sRGB">
	<feDropShadow stdDeviation="10" dx="10" dy="10" flood-color="#c20000" flood-opacity="0.2" x="0%" y="0%" width="100%" height="100%" result="dropShadow"></feDropShadow>
</filter></defs><g stroke-linecap="round"><path d="M650 399.99999613096236C650 561.6737853047515 561.6737891737891 635.7549818859482 400 635.7549818859482C238.3269230769231 635.7549818859482 150 561.6737853047515 150 399.99999613096236C150 238.3269192078854 238.3269230769231 164.24501037597656 400 164.24501037597656C561.6737891737891 164.24501037597656 650 238.3269192078854 650 399.99999613096236Z " fill="hsl(50, 65%, 76%)"></path><path d="M650 399.99999613096236C650 561.6737853047515 561.6737891737891 635.7549818859482 400 635.7549818859482C238.3269230769231 635.7549818859482 150 561.6737853047515 150 399.99999613096236C150 238.3269192078854 238.3269230769231 164.24501037597656 400 164.24501037597656C561.6737891737891 164.24501037597656 650 238.3269192078854 650 399.99999613096236Z " fill="url(#ccclaymoji-grad-dark)"></path><path d="M650 399.99999613096236C650 561.6737853047515 561.6737891737891 635.7549818859482 400 635.7549818859482C238.3269230769231 635.7549818859482 150 561.6737853047515 150 399.99999613096236C150 238.3269192078854 238.3269230769231 164.24501037597656 400 164.24501037597656C561.6737891737891 164.24501037597656 650 238.3269192078854 650 399.99999613096236Z " fill="url(#ccclaymoji-grad-light)"></path><ellipse rx="23.5" ry="25" cx="350" cy="375" fill="black" filter="url(#eye-shadow)"></ellipse><ellipse rx="23.5" ry="25" cx="350" cy="375" fill="url(#eye-light)" filter="url(#inner-blur)"></ellipse><ellipse rx="23.5" ry="25" cx="450" cy="375" fill="black" filter="url(#eye-shadow)"></ellipse><ellipse rx="23.5" ry="25" cx="450" cy="375" fill="url(#eye-light)" filter="url(#inner-blur)"></ellipse><path d="M316.5 513.25Q389.5 560.25 483.5 513.25 " stroke-width="20" stroke="hsl(3, 100%, 51%)" fill="none" filter="url(#mouth-shadow)" transform="rotate(23, 400, 400)"></path><path d="M316.5 513.25Q389.5 560.25 483.5 513.25 " stroke-width="6.666666666666667" stroke="url(#mouth-light)" fill="none" filter="url(#inner-blur)" transform="rotate(23, 400, 400)"></path></g></svg>